HIERARCHY
ROOT Hips
{
	OFFSET 0.000000 0.000000 0.000000
	CHANNELS 6 Xposition Yposition Zposition Zrotation Xrotation Yrotation
	JOINT Spine
	{
		OFFSET 0.000000 0.000001 13.607315
		CHANNELS 6 Xposition Yposition Zposition Zrotation Xrotation Yrotation
		JOINT Spine1
		{
			OFFSET 0.000000 0.000002 32.905151
			CHANNELS 6 Xposition Yposition Zposition Zrotation Xrotation Yrotation
			JOINT Neck
			{
				OFFSET 0.000000 0.000003 36.224007
				CHANNELS 6 Xposition Yposition Zposition Zrotation Xrotation Yrotation
				JOINT Head
				{
					OFFSET 0.000000 -3.318856 25.721138
					CHANNELS 6 Xposition Yposition Zposition Zrotation Xrotation Yrotation
					End Site
					{
						OFFSET 0.000000 0.000003 33.188583
					}
				}
			}
			JOINT LeftShoulder
			{
				OFFSET 6.601294 0.334552 29.862328
				CHANNELS 6 Xposition Yposition Zposition Zrotation Xrotation Yrotation
				JOINT LeftArm
				{
					OFFSET 19.242624 0.000000 0.000000
					CHANNELS 6 Xposition Yposition Zposition Zrotation Xrotation Yrotation
					JOINT LeftForeArm
					{
						OFFSET 50.754074 0.000000 0.000000
						CHANNELS 6 Xposition Yposition Zposition Zrotation Xrotation Yrotation
						JOINT LeftHand
						{
							OFFSET 39.779915 0.000000 0.000000
							CHANNELS 6 Xposition Yposition Zposition Zrotation Xrotation Yrotation
							End Site
							{
								OFFSET 24.891426 0.000000 0.000000
							}
						}
					}
				}
			}
			JOINT RightShoulder
			{
				OFFSET -6.670611 0.334552 29.862328
				CHANNELS 6 Xposition Yposition Zposition Zrotation Xrotation Yrotation
				JOINT RightArm
				{
					OFFSET -19.242626 0.000000 0.000000
					CHANNELS 6 Xposition Yposition Zposition Zrotation Xrotation Yrotation
					JOINT RightForeArm
					{
						OFFSET -50.754066 0.000000 0.000000
						CHANNELS 6 Xposition Yposition Zposition Zrotation Xrotation Yrotation
						JOINT RightHand
						{
							OFFSET -39.779915 0.000000 0.000000
							CHANNELS 6 Xposition Yposition Zposition Zrotation Xrotation Yrotation
							End Site
							{
								OFFSET -24.891434 0.000000 0.000000
							}
						}
					}
				}
			}
		}
	}
	JOINT LeftUpLeg
	{
		OFFSET 16.594286 0.000000 0.000000
		CHANNELS 6 Xposition Yposition Zposition Zrotation Xrotation Yrotation
		JOINT LeftLeg
		{
			OFFSET 0.000000 -0.000006 -80.133614
			CHANNELS 6 Xposition Yposition Zposition Zrotation Xrotation Yrotation
			JOINT LeftFoot
			{
				OFFSET 0.000000 -0.000005 -62.502724
				CHANNELS 6 Xposition Yposition Zposition Zrotation Xrotation Yrotation
				JOINT LeftToeBase
				{
					OFFSET 0.000000 -24.891430 -10.786270
					CHANNELS 6 Xposition Yposition Zposition Zrotation Xrotation Yrotation
					End Site
					{
						OFFSET 0.000000 -6.637711 0.000000
					}
				}
			}
		}
	}
	JOINT RightUpLeg
	{
		OFFSET -16.594286 0.000000 0.000000
		CHANNELS 6 Xposition Yposition Zposition Zrotation Xrotation Yrotation
		JOINT RightLeg
		{
			OFFSET 0.000000 -0.000006 -80.133614
			CHANNELS 6 Xposition Yposition Zposition Zrotation Xrotation Yrotation
			JOINT RightFoot
			{
				OFFSET 0.000000 -0.000005 -62.502724
				CHANNELS 6 Xposition Yposition Zposition Zrotation Xrotation Yrotation
				JOINT RightToeBase
				{
					OFFSET 0.000000 -24.891430 -10.786270
					CHANNELS 6 Xposition Yposition Zposition Zrotation Xrotation Yrotation
					End Site
					{
						OFFSET 0.000000 -6.637711 0.000000
					}
				}
			}
		}
	}
}
MOTION
Frames: 4
Frame Time: 0.041667
-12.733183 -5.163076 1.404982 -0.569184 -18.169618 6.314667 -0.000003 0.000001 13.607315 -4.272218 23.389281 0.749720 -0.000003 0.000002 32.905167 3.624566 -5.795640 1.378594 0.000001 0.000005 36.223999 -4.757063 11.331028 0.933510 0.000002 -3.318851 25.721125 -0.026327 0.946746 0.349014 6.601294 0.334551 29.862335 12.293607 5.374363 14.251206 19.242620 0.000000 0.000004 -11.469553 1.258051 54.741507 50.754063 -0.000005 0.000003 -113.161837 11.494312 0.000103 39.779915 0.000003 0.000003 10.239186 43.769334 14.415287 -6.670612 0.334550 29.862341 -16.073313 5.950045 -13.518911 -19.242628 0.000000 0.000002 15.657353 -2.694249 -55.255728 -50.754059 -0.000004 -0.000002 108.447565 8.667812 -0.000195 -39.779915 0.000002 -0.000002 -22.080588 53.670626 -17.915508 16.594286 0.000001 -0.000000 12.039675 21.313498 -13.484048 0.000001 -0.000006 -80.133614 0.000002 5.374126 0.000003 -0.000001 -0.000009 -62.502720 14.725495 17.495770 0.932417 -0.000002 -24.891430 -10.786258 -0.000008 -25.394136 -0.999992 -16.594292 -0.000000 -0.000000 -21.162733 14.969587 8.870159 -0.000003 -0.000006 -80.133614 0.000007 4.727162 -0.000006 0.000008 -0.000010 -62.502728 -4.309352 21.437262 -4.402569 -0.000003 -24.891426 -10.786279 -0.000001 -26.827569 -0.000015 
-12.910497 -5.227059 1.409286 -0.479007 -18.177722 6.451693 -0.000005 0.000001 13.607313 -4.253180 23.407982 0.549325 -0.000001 0.000004 32.905151 3.615944 -5.801120 1.411484 -0.000001 0.000001 36.224007 -4.764090 11.321552 0.865541 0.000001 -3.318853 25.721138 -0.026701 0.928858 0.351367 6.601295 0.334550 29.862318 12.282235 5.373339 14.233440 19.242622 0.000001 -0.000010 -11.470288 1.294190 54.711895 50.754078 -0.000002 0.000000 -113.122249 11.498693 -0.000067 39.779903 0.000000 0.000001 10.341591 43.784907 14.318821 -6.670611 0.334551 29.862318 -16.033027 5.964550 -13.569910 -19.242630 -0.000001 -0.000004 15.648723 -2.678921 -55.224962 -50.754070 -0.000005 0.000005 108.434178 8.706011 0.000589 -39.779911 0.000009 -0.000010 -22.004380 53.664188 -17.887376 16.594284 0.000000 0.000000 11.790762 21.234083 -13.677287 0.000000 -0.000005 -80.133621 0.000009 5.651373 -0.000022 0.000001 0.000001 -62.502701 14.853648 17.437321 1.124366 -0.000004 -24.891418 -10.786264 -0.000010 -25.331375 0.999997 -16.594292 0.000000 -0.000000 -21.348586 15.303660 8.694964 -0.000000 -0.000010 -80.133614 0.000002 4.377131 0.000001 -0.000006 -0.000014 -62.502708 -4.255552 21.442718 -4.320407 -0.000002 -24.891430 -10.786278 -0.000005 -26.832192 -0.000005 
-13.084986 -5.288315 1.407903 -0.388994 -18.168117 6.556594 0.000000 0.000001 13.607315 -4.245325 23.426133 0.388848 -0.000000 0.000003 32.905163 3.615298 -5.822507 1.439666 0.000002 0.000003 36.223999 -4.762234 11.305224 0.783271 0.000001 -3.318854 25.721134 -0.028429 0.897721 0.340957 6.601294 0.334551 29.862318 12.296744 5.387760 14.189953 19.242624 -0.000000 0.000010 -11.511945 1.312094 54.700823 50.754074 -0.000005 -0.000004 -113.051946 11.538289 0.000493 39.779915 0.000000 0.000007 10.199961 43.691368 14.292637 -6.670610 0.334553 29.862324 -16.040590 5.992865 -13.586740 -19.242632 -0.000001 -0.000001 15.679379 -2.694461 -55.221601 -50.754078 0.000003 0.000009 108.409808 8.672678 -0.000047 -39.779919 0.000008 -0.000003 -22.070880 53.689122 -17.874354 16.594286 0.000000 0.000000 11.550498 21.129959 -13.840275 -0.000001 -0.000006 -80.133621 0.000010 5.944534 -0.000007 0.000001 -0.000020 -62.502724 14.958454 17.375195 1.293628 0.000001 -24.891426 -10.786291 -0.000016 -25.276138 0.000001 -16.594284 -0.000000 0.000000 -21.546098 15.608837 8.546889 -0.000005 -0.000006 -80.133614 0.000001 4.014371 -0.000002 -0.000005 -0.000012 -62.502724 -4.202665 21.442194 -4.255463 0.000010 -24.891424 -10.786306 -0.000001 -26.835933 -0.000002 
-13.257907 -5.348526 1.414448 -0.324259 -18.164219 6.654007 0.000000 0.000001 13.607315 -4.215390 23.435935 0.222150 0.000001 0.000003 32.905159 3.604068 -5.826638 1.464884 0.000001 0.000003 36.224030 -4.785083 11.281701 0.712875 0.000001 -3.318858 25.721132 -0.029684 0.875757 0.339841 6.601293 0.334552 29.862343 12.287315 5.386975 14.178419 19.242638 0.000001 0.000000 -11.513312 1.309714 54.681740 50.754066 -0.000010 0.000015 -112.977408 11.443515 0.000315 39.779922 0.000006 -0.000001 10.085288 43.718340 14.422595 -6.670614 0.334551 29.862329 -16.015609 6.003878 -13.614662 -19.242636 0.000000 -0.000002 15.684073 -2.673707 -55.213320 -50.754070 -0.000003 0.000005 108.384823 8.711302 -0.000454 -39.779922 0.000008 -0.000001 -22.142466 53.546938 -17.705903 16.594286 0.000000 -0.000000 11.332211 21.015898 -14.004109 0.000000 -0.000006 -80.133629 0.000003 6.268452 0.000013 0.000002 -0.000002 -62.502705 15.012524 17.340621 1.467775 0.000005 -24.891432 -10.786285 -0.000028 -25.280859 0.000000 -16.594292 -0.000000 -0.000001 -21.698524 15.933658 8.396165 0.000001 -0.000005 -80.133606 -0.000006 3.625282 -0.000000 0.000001 -0.000019 -62.502743 -4.220528 21.455535 -4.198986 0.000003 -24.891432 -10.786280 -0.000013 -26.836522 -0.000006 
